ply
format ascii 1.0
element vertex 256
property float x
property float y
property float z
element face 256
property list uchar int vertex_indices
end_header
0.57735 0.57735 0.57735
-0.57735 -0.57735 0.57735
-0.57735 0.57735 -0.57735
0.57735 -0.57735 -0.57735
0 0 1
-1 0 0
0 1 0
1 0 0
0 -1 0
0 0 1
0 1 0
0 0 -1
1 0 0
0 -1 0
0 0 -1
-1 0 0
0.325058 0.325058 0.888074
0 0.707107 0.707107
0.325058 0.888074 0.325058
-0.888074 -0.325058 0.325058
-0.707107 0 0.707107
-0.325058 -0.325058 0.888074
-0.325058 0.888074 -0.325058
-0.707107 0.707107 0
-0.888074 0.325058 -0.325058
-0.707107 0 0.707107
-0.707107 0.707107 0
0 0.707107 0.707107
0.888074 0.325058 0.325058
0.707107 0 0.707107
0.325058 0.325058 0.888074
0.325058 -0.888074 -0.325058
0.707107 -0.707107 0
0.888074 -0.325058 -0.325058
-0.325058 -0.325058 0.888074
0 -0.707107 0.707107
-0.325058 -0.888074 0.325058
0.707107 -0.707107 0
0 -0.707107 0.707107
0.707107 0 0.707107
0.325058 0.888074 0.325058
0.707107 0.707107 0
0.888074 0.325058 0.325058
-0.325058 0.325058 -0.888074
0 0.707107 -0.707107
-0.325058 0.888074 -0.325058
0.888074 -0.325058 -0.325058
0.707107 0 -0.707107
0.325058 -0.325058 -0.888074
0 0.707107 -0.707107
0.707107 0 -0.707107
0.707107 0.707107 0
-0.325058 -0.888074 0.325058
-0.707107 -0.707107 0
-0.888074 -0.325058 0.325058
0.325058 -0.325058 -0.888074
0 -0.707107 -0.707107
0.325058 -0.888074 -0.325058
-0.888074 0.325058 -0.325058
-0.707107 0 -0.707107
-0.325058 0.325058 -0.888074
0 -0.707107 -0.707107
-0.707107 0 -0.707107
-0.707107 -0.707107 0
0.464385 0.464385 0.754117
0.354349 0.661225 0.661225
0.464385 0.754117 0.464385
0 0.382683 0.92388
0.168634 0.535467 0.827549
0.167277 0.167277 0.971616
0.167277 0.971616 0.167277
0.168634 0.827549 0.535467
0 0.92388 0.382683
0.168634 0.535467 0.827549
0.168634 0.827549 0.535467
0.354349 0.661225 0.661225
-0.754117 -0.464385 0.464385
-0.661225 -0.354349 0.661225
-0.464385 -0.464385 0.754117
-0.92388 0 0.382683
-0.827549 -0.168634 0.535467
-0.971616 -0.167277 0.167277
-0.167277 -0.167277 0.971616
-0.535467 -0.168634 0.827549
-0.382683 0 0.92388
-0.827549 -0.168634 0.535467
-0.535467 -0.168634 0.827549
-0.661225 -0.354349 0.661225
-0.464385 0.754117 -0.464385
-0.661225 0.661225 -0.354349
-0.754117 0.464385 -0.464385
-0.382683 0.92388 0
-0.535467 0.827549 -0.168634
-0.167277 0.971616 -0.167277
-0.971616 0.167277 -0.167277
-0.827549 0.535467 -0.168634
-0.92388 0.382683 0
-0.535467 0.827549 -0.168634
-0.827549 0.535467 -0.168634
-0.661225 0.661225 -0.354349
-0.382683 0 0.92388
-0.408248 0.408248 0.816497
0 0.382683 0.92388
-0.92388 0.382683 0
-0.816497 0.408248 0.408248
-0.92388 0 0.382683
0 0.92388 0.382683
-0.408248 0.816497 0.408248
-0.382683 0.92388 0
-0.816497 0.408248 0.408248
-0.408248 0.816497 0.408248
-0.408248 0.408248 0.816497
0.754117 0.464385 0.464385
0.661225 0.354349 0.661225
0.464385 0.464385 0.754117
0.92388 0 0.382683
0.827549 0.168634 0.535467
0.971616 0.167277 0.167277
0.167277 0.167277 0.971616
0.535467 0.168634 0.827549
0.382683 0 0.92388
0.827549 0.168634 0.535467
0.535467 0.168634 0.827549
0.661225 0.354349 0.661225
0.464385 -0.754117 -0.464385
0.661225 -0.661225 -0.354349
0.754117 -0.464385 -0.464385
0.382683 -0.92388 0
0.535467 -0.827549 -0.168634
0.167277 -0.971616 -0.167277
0.971616 -0.167277 -0.167277
0.827549 -0.535467 -0.168634
0.92388 -0.382683 0
0.535467 -0.827549 -0.168634
0.827549 -0.535467 -0.168634
0.661225 -0.661225 -0.354349
-0.464385 -0.464385 0.754117
-0.354349 -0.661225 0.661225
-0.464385 -0.754117 0.464385
0 -0.382683 0.92388
-0.168634 -0.535467 0.827549
-0.167277 -0.167277 0.971616
-0.167277 -0.971616 0.167277
-0.168634 -0.827549 0.535467
0 -0.92388 0.382683
-0.168634 -0.535467 0.827549
-0.168634 -0.827549 0.535467
-0.354349 -0.661225 0.661225
0.92388 -0.382683 0
0.816497 -0.408248 0.408248
0.92388 0 0.382683
0 -0.92388 0.382683
0.408248 -0.816497 0.408248
0.382683 -0.92388 0
0.382683 0 0.92388
0.408248 -0.408248 0.816497
0 -0.382683 0.92388
0.408248 -0.816497 0.408248
0.408248 -0.408248 0.816497
0.816497 -0.408248 0.408248
0.464385 0.754117 0.464385
0.661225 0.661225 0.354349
0.754117 0.464385 0.464385
0.382683 0.92388 0
0.535467 0.827549 0.168634
0.167277 0.971616 0.167277
0.971616 0.167277 0.167277
0.827549 0.535467 0.168634
0.92388 0.382683 0
0.535467 0.827549 0.168634
0.827549 0.535467 0.168634
0.661225 0.661225 0.354349
-0.464385 0.464385 -0.754117
-0.354349 0.661225 -0.661225
-0.464385 0.754117 -0.464385
0 0.382683 -0.92388
-0.168634 0.535467 -0.827549
-0.167277 0.167277 -0.971616
-0.167277 0.971616 -0.167277
-0.168634 0.827549 -0.535467
0 0.92388 -0.382683
-0.168634 0.535467 -0.827549
-0.168634 0.827549 -0.535467
-0.354349 0.661225 -0.661225
0.754117 -0.464385 -0.464385
0.661225 -0.354349 -0.661225
0.464385 -0.464385 -0.754117
0.92388 0 -0.382683
0.827549 -0.168634 -0.535467
0.971616 -0.167277 -0.167277
0.167277 -0.167277 -0.971616
0.535467 -0.168634 -0.827549
0.382683 0 -0.92388
0.827549 -0.168634 -0.535467
0.535467 -0.168634 -0.827549
0.661225 -0.354349 -0.661225
0 0.92388 -0.382683
0.408248 0.816497 -0.408248
0.382683 0.92388 0
0.382683 0 -0.92388
0.408248 0.408248 -0.816497
0 0.382683 -0.92388
0.92388 0.382683 0
0.816497 0.408248 -0.408248
0.92388 0 -0.382683
0.408248 0.408248 -0.816497
0.816497 0.408248 -0.408248
0.408248 0.816497 -0.408248
-0.464385 -0.754117 0.464385
-0.661225 -0.661225 0.354349
-0.754117 -0.464385 0.464385
-0.382683 -0.92388 0
-0.535467 -0.827549 0.168634
-0.167277 -0.971616 0.167277
-0.971616 -0.167277 0.167277
-0.827549 -0.535467 0.168634
-0.92388 -0.382683 0
-0.535467 -0.827549 0.168634
-0.827549 -0.535467 0.168634
-0.661225 -0.661225 0.354349
0.464385 -0.464385 -0.754117
0.354349 -0.661225 -0.661225
0.464385 -0.754117 -0.464385
0 -0.382683 -0.92388
0.168634 -0.535467 -0.827549
0.167277 -0.167277 -0.971616
0.167277 -0.971616 -0.167277
0.168634 -0.827549 -0.535467
0 -0.92388 -0.382683
0.168634 -0.535467 -0.827549
0.168634 -0.827549 -0.535467
0.354349 -0.661225 -0.661225
-0.754117 0.464385 -0.464385
-0.661225 0.354349 -0.661225
-0.464385 0.464385 -0.754117
-0.92388 0 -0.382683
-0.827549 0.168634 -0.535467
-0.971616 0.167277 -0.167277
-0.167277 0.167277 -0.971616
-0.535467 0.168634 -0.827549
-0.382683 0 -0.92388
-0.827549 0.168634 -0.535467
-0.535467 0.168634 -0.827549
-0.661225 0.354349 -0.661225
0 -0.92388 -0.382683
-0.408248 -0.816497 -0.408248
-0.382683 -0.92388 0
-0.382683 0 -0.92388
-0.408248 -0.408248 -0.816497
0 -0.382683 -0.92388
-0.92388 -0.382683 0
-0.816497 -0.408248 -0.408248
-0.92388 0 -0.382683
-0.408248 -0.408248 -0.816497
-0.816497 -0.408248 -0.408248
-0.408248 -0.816497 -0.408248
3 0 64 66
3 16 65 64
3 18 66 65
3 64 65 66
3 4 67 69
3 17 68 67
3 16 69 68
3 67 68 69
3 6 70 72
3 18 71 70
3 17 72 71
3 70 71 72
3 16 73 75
3 17 74 73
3 18 75 74
3 73 74 75
3 1 76 78
3 19 77 76
3 21 78 77
3 76 77 78
3 5 79 81
3 20 80 79
3 19 81 80
3 79 80 81
3 4 82 84
3 21 83 82
3 20 84 83
3 82 83 84
3 19 85 87
3 20 86 85
3 21 87 86
3 85 86 87
3 2 88 90
3 22 89 88
3 24 90 89
3 88 89 90
3 6 91 93
3 23 92 91
3 22 93 92
3 91 92 93
3 5 94 96
3 24 95 94
3 23 96 95
3 94 95 96
3 22 97 99
3 23 98 97
3 24 99 98
3 97 98 99
3 4 100 102
3 25 101 100
3 27 102 101
3 100 101 102
3 5 103 105
3 26 104 103
3 25 105 104
3 103 104 105
3 6 106 108
3 27 107 106
3 26 108 107
3 106 107 108
3 25 109 111
3 26 110 109
3 27 111 110
3 109 110 111
3 0 112 114
3 28 113 112
3 30 114 113
3 112 113 114
3 7 115 117
3 29 116 115
3 28 117 116
3 115 116 117
3 9 118 120
3 30 119 118
3 29 120 119
3 118 119 120
3 28 121 123
3 29 122 121
3 30 123 122
3 121 122 123
3 3 124 126
3 31 125 124
3 33 126 125
3 124 125 126
3 8 127 129
3 32 128 127
3 31 129 128
3 127 128 129
3 7 130 132
3 33 131 130
3 32 132 131
3 130 131 132
3 31 133 135
3 32 134 133
3 33 135 134
3 133 134 135
3 1 136 138
3 34 137 136
3 36 138 137
3 136 137 138
3 9 139 141
3 35 140 139
3 34 141 140
3 139 140 141
3 8 142 144
3 36 143 142
3 35 144 143
3 142 143 144
3 34 145 147
3 35 146 145
3 36 147 146
3 145 146 147
3 7 148 150
3 37 149 148
3 39 150 149
3 148 149 150
3 8 151 153
3 38 152 151
3 37 153 152
3 151 152 153
3 9 154 156
3 39 155 154
3 38 156 155
3 154 155 156
3 37 157 159
3 38 158 157
3 39 159 158
3 157 158 159
3 0 160 162
3 40 161 160
3 42 162 161
3 160 161 162
3 10 163 165
3 41 164 163
3 40 165 164
3 163 164 165
3 12 166 168
3 42 167 166
3 41 168 167
3 166 167 168
3 40 169 171
3 41 170 169
3 42 171 170
3 169 170 171
3 2 172 174
3 43 173 172
3 45 174 173
3 172 173 174
3 11 175 177
3 44 176 175
3 43 177 176
3 175 176 177
3 10 178 180
3 45 179 178
3 44 180 179
3 178 179 180
3 43 181 183
3 44 182 181
3 45 183 182
3 181 182 183
3 3 184 186
3 46 185 184
3 48 186 185
3 184 185 186
3 12 187 189
3 47 188 187
3 46 189 188
3 187 188 189
3 11 190 192
3 48 191 190
3 47 192 191
3 190 191 192
3 46 193 195
3 47 194 193
3 48 195 194
3 193 194 195
3 10 196 198
3 49 197 196
3 51 198 197
3 196 197 198
3 11 199 201
3 50 200 199
3 49 201 200
3 199 200 201
3 12 202 204
3 51 203 202
3 50 204 203
3 202 203 204
3 49 205 207
3 50 206 205
3 51 207 206
3 205 206 207
3 1 208 210
3 52 209 208
3 54 210 209
3 208 209 210
3 13 211 213
3 53 212 211
3 52 213 212
3 211 212 213
3 15 214 216
3 54 215 214
3 53 216 215
3 214 215 216
3 52 217 219
3 53 218 217
3 54 219 218
3 217 218 219
3 3 220 222
3 55 221 220
3 57 222 221
3 220 221 222
3 14 223 225
3 56 224 223
3 55 225 224
3 223 224 225
3 13 226 228
3 57 227 226
3 56 228 227
3 226 227 228
3 55 229 231
3 56 230 229
3 57 231 230
3 229 230 231
3 2 232 234
3 58 233 232
3 60 234 233
3 232 233 234
3 15 235 237
3 59 236 235
3 58 237 236
3 235 236 237
3 14 238 240
3 60 239 238
3 59 240 239
3 238 239 240
3 58 241 243
3 59 242 241
3 60 243 242
3 241 242 243
3 13 244 246
3 61 245 244
3 63 246 245
3 244 245 246
3 14 247 249
3 62 248 247
3 61 249 248
3 247 248 249
3 15 250 252
3 63 251 250
3 62 252 251
3 250 251 252
3 61 253 255
3 62 254 253
3 63 255 254
3 253 254 255
